<svg width="66" height="65" viewBox="0 0 66 65" fill="none" xmlns="http://www.w3.org/2000/svg">
<rect x="0.5" width="65" height="65" rx="32.5" fill="#A87033"/>
<path d="M33.9785 45.4922L33.9604 45.4953L33.8432 45.5482L33.8102 45.5543L33.7871 45.5482L33.67 45.4953C33.6524 45.4902 33.6392 45.4927 33.6304 45.5028L33.6238 45.518L33.5957 46.1654L33.604 46.1957L33.6205 46.2154L33.7921 46.3273L33.8168 46.3334L33.8366 46.3273L34.0082 46.2154L34.028 46.1912L34.0346 46.1654L34.0066 45.5195C34.0022 45.5033 33.9928 45.4943 33.9785 45.4922ZM34.4158 45.3213L34.3943 45.3243L34.0891 45.465L34.0726 45.4801L34.0676 45.4968L34.0973 46.1473L34.1056 46.1654L34.1188 46.176L34.4504 46.3167C34.4713 46.3218 34.4873 46.3177 34.4983 46.3046L34.5049 46.2834L34.4488 45.3546C34.4433 45.3364 34.4323 45.3253 34.4158 45.3213ZM33.236 45.3243C33.2288 45.3203 33.2201 45.319 33.2118 45.3207C33.2035 45.3224 33.1962 45.3269 33.1915 45.3334L33.1816 45.3546L33.1255 46.2834C33.1266 46.3016 33.1359 46.3137 33.1535 46.3197L33.1783 46.3167L33.5099 46.176L33.5264 46.1639L33.533 46.1473L33.5611 45.4968L33.5561 45.4786L33.5396 45.4635L33.236 45.3243Z" fill="white"/>
<path d="M42.4166 35.6165C42.48 35.553 42.5554 35.5026 42.6383 35.4682C42.7213 35.4338 42.8102 35.416 42.9 35.416C42.9898 35.416 43.0787 35.4338 43.1617 35.4682C43.2446 35.5026 43.32 35.553 43.3834 35.6165C43.957 36.1902 44.6919 36.5751 45.4901 36.7198C46.2882 36.8646 47.1115 36.7623 47.85 36.4267V42.7C48.2876 42.7 48.7073 42.8738 49.0167 43.1833C49.3262 43.4927 49.5 43.9124 49.5 44.35C49.5 44.7876 49.3262 45.2073 49.0167 45.5167C48.7073 45.8262 48.2876 46 47.85 46H18.15C17.7124 46 17.2927 45.8262 16.9833 45.5167C16.6738 45.2073 16.5 44.7876 16.5 44.35C16.5 43.9124 16.6738 43.4927 16.9833 43.1833C17.2927 42.8738 17.7124 42.7 18.15 42.7V36.4267C19.6185 37.0949 21.4087 36.8244 22.6165 35.6182C22.68 35.5546 22.7554 35.5042 22.8383 35.4698C22.9213 35.4354 23.0102 35.4177 23.1 35.4177C23.1898 35.4177 23.2787 35.4354 23.3617 35.4698C23.4446 35.5042 23.52 35.5546 23.5835 35.6182C23.9533 35.9881 24.3924 36.2815 24.8757 36.4817C25.359 36.6819 25.8769 36.7849 26.4 36.7849C26.9231 36.7849 27.441 36.6819 27.9243 36.4817C28.4076 36.2815 28.8467 35.9881 29.2165 35.6182C29.28 35.5546 29.3554 35.5042 29.4383 35.4698C29.5213 35.4354 29.6102 35.4177 29.7 35.4177C29.7898 35.4177 29.8787 35.4354 29.9617 35.4698C30.0446 35.5042 30.12 35.5546 30.1834 35.6182C30.5533 35.9881 30.9924 36.2815 31.4757 36.4817C31.959 36.6819 32.4769 36.7849 33 36.7849C33.5231 36.7849 34.041 36.6819 34.5243 36.4817C35.0076 36.2815 35.4467 35.9881 35.8165 35.6182C35.88 35.5546 35.9554 35.5042 36.0383 35.4698C36.1213 35.4354 36.2102 35.4177 36.3 35.4177C36.3898 35.4177 36.4787 35.4354 36.5617 35.4698C36.6446 35.5042 36.72 35.5546 36.7834 35.6182C37.1533 35.9881 37.5924 36.2815 38.0757 36.4817C38.559 36.6819 39.0769 36.7849 39.6 36.7849C40.1231 36.7849 40.641 36.6819 41.1243 36.4817C41.6076 36.2815 42.0467 35.9881 42.4166 35.6182V35.6165ZM39.6 19.6C40.0376 19.6 40.4573 19.7738 40.7667 20.0833C41.0762 20.3927 41.25 20.8124 41.25 21.25V24.55H42.9C44.2128 24.55 45.4719 25.0715 46.4002 25.9998C47.3285 26.9281 47.85 28.1872 47.85 29.5V32.1169L46.6834 33.2834C46.62 33.347 46.5446 33.3974 46.4617 33.4318C46.3787 33.4662 46.2898 33.4839 46.2 33.4839C46.1102 33.4839 46.0213 33.4662 45.9383 33.4318C45.8554 33.3974 45.78 33.347 45.7166 33.2834C45.3467 32.9136 44.9076 32.6202 44.4243 32.42C43.941 32.2198 43.4231 32.1168 42.9 32.1168C42.3769 32.1168 41.859 32.2198 41.3757 32.42C40.8924 32.6202 40.4533 32.9136 40.0834 33.2834C40.02 33.347 39.9446 33.3974 39.8617 33.4318C39.7787 33.4662 39.6898 33.4839 39.6 33.4839C39.5102 33.4839 39.4213 33.4662 39.3383 33.4318C39.2554 33.3974 39.18 33.347 39.1165 33.2834C38.7467 32.9136 38.3076 32.6202 37.8243 32.42C37.341 32.2198 36.8231 32.1168 36.3 32.1168C35.7769 32.1168 35.259 32.2198 34.7757 32.42C34.2924 32.6202 33.8533 32.9136 33.4834 33.2834C33.42 33.347 33.3446 33.3974 33.2617 33.4318C33.1787 33.4662 33.0898 33.4839 33 33.4839C32.9102 33.4839 32.8213 33.4662 32.7383 33.4318C32.6554 33.3974 32.58 33.347 32.5166 33.2834C32.1467 32.9136 31.7076 32.6202 31.2243 32.42C30.741 32.2198 30.2231 32.1168 29.7 32.1168C29.1769 32.1168 28.659 32.2198 28.1757 32.42C27.6924 32.6202 27.2533 32.9136 26.8835 33.2834C26.82 33.347 26.7446 33.3974 26.6617 33.4318C26.5787 33.4662 26.4898 33.4839 26.4 33.4839C26.3102 33.4839 26.2213 33.4662 26.1383 33.4318C26.0554 33.3974 25.98 33.347 25.9165 33.2834C25.5467 32.9136 25.1076 32.6202 24.6243 32.42C24.141 32.2198 23.6231 32.1168 23.1 32.1168C22.5769 32.1168 22.059 32.2198 21.5757 32.42C21.0924 32.6202 20.6533 32.9136 20.2835 33.2834C20.22 33.347 20.1446 33.3974 20.0617 33.4318C19.9787 33.4662 19.8898 33.4839 19.8 33.4839C19.7102 33.4839 19.6213 33.4662 19.5383 33.4318C19.4554 33.3974 19.38 33.347 19.3166 33.2834L18.15 32.1169V29.5C18.15 28.1872 18.6715 26.9281 19.5998 25.9998C20.5281 25.0715 21.7872 24.55 23.1 24.55H24.75V21.25C24.75 20.8124 24.9238 20.3927 25.2333 20.0833C25.5427 19.7738 25.9624 19.6 26.4 19.6C26.8376 19.6 27.2573 19.7738 27.5667 20.0833C27.8762 20.3927 28.05 20.8124 28.05 21.25V24.55H31.35V21.25C31.35 20.8124 31.5238 20.3927 31.8333 20.0833C32.1427 19.7738 32.5624 19.6 33 19.6C33.4376 19.6 33.8573 19.7738 34.1667 20.0833C34.4762 20.3927 34.65 20.8124 34.65 21.25V24.55H37.95V21.25C37.95 20.8124 38.1238 20.3927 38.4333 20.0833C38.7427 19.7738 39.1624 19.6 39.6 19.6ZM33.825 13C33.2986 14.0527 33.7788 14.7325 34.1963 15.3265C34.4339 15.6615 34.65 15.97 34.65 16.3C34.65 16.7376 34.4762 17.1573 34.1667 17.4667C33.8573 17.7762 33.4376 17.95 33 17.95C32.5624 17.95 32.1427 17.7762 31.8333 17.4667C31.5238 17.1573 31.35 16.7376 31.35 16.3C31.35 15.3892 32.175 13.825 33.825 13ZM27.225 13C26.6986 14.0527 27.1788 14.7325 27.5963 15.3265C27.8339 15.6615 28.05 15.97 28.05 16.3C28.05 16.7376 27.8762 17.1573 27.5667 17.4667C27.2573 17.7762 26.8376 17.95 26.4 17.95C25.9624 17.95 25.5427 17.7762 25.2333 17.4667C24.9238 17.1573 24.75 16.7376 24.75 16.3C24.75 15.3892 25.575 13.825 27.225 13ZM40.425 13C39.8986 14.0527 40.3788 14.7325 40.7962 15.3265C41.0338 15.6615 41.25 15.97 41.25 16.3C41.25 16.7376 41.0762 17.1573 40.7667 17.4667C40.4573 17.7762 40.0376 17.95 39.6 17.95C39.1624 17.95 38.7427 17.7762 38.4333 17.4667C38.1238 17.1573 37.95 16.7376 37.95 16.3C37.95 15.3892 38.775 13.825 40.425 13Z" fill="white"/>
</svg>
