<svg width="66" height="65" viewBox="0 0 66 65" fill="none" xmlns="http://www.w3.org/2000/svg">
<rect x="0.5" width="65" height="65" rx="32.5" fill="#A87033"/>
<path d="M32.9976 16C29.6313 16.0005 26.3457 17.0306 23.5817 18.9521C20.8176 20.8736 18.7075 23.5946 17.5343 26.7499C16.3612 29.9052 16.1813 33.3438 17.0186 36.6043C17.856 39.8648 19.6706 42.7912 22.2189 44.9907C24.7673 47.1903 27.9274 48.5577 31.2753 48.9096C34.6232 49.2615 37.9986 48.5809 40.9485 46.9593C43.8985 45.3376 46.2819 42.8525 47.7788 39.8373C49.2758 36.8221 49.8147 33.4212 49.3232 30.091C49.2942 29.8921 49.2149 29.7038 49.0927 29.5442C48.9705 29.3846 48.8095 29.2589 48.625 29.179C48.4405 29.0992 48.2386 29.0679 48.0386 29.088C47.8386 29.1082 47.6471 29.1792 47.4823 29.2943C46.836 29.7455 46.087 30.0275 45.3036 30.1144C44.5202 30.2014 43.7276 30.0905 42.9981 29.792C42.2687 29.4936 41.6257 29.0169 41.128 28.4058C40.6303 27.7946 40.2938 27.0684 40.1492 26.2936C40.1055 26.0593 39.9917 25.8438 39.823 25.6755C39.6542 25.5071 39.4384 25.3939 39.204 25.3508C38.4284 25.2066 37.7014 24.8701 37.0897 24.3721C36.4779 23.8741 36.0008 23.2305 35.7023 22.5003C35.4037 21.7702 35.2931 20.9768 35.3806 20.1928C35.4682 19.4088 35.751 18.6593 36.2033 18.013C36.3178 17.8482 36.3884 17.6569 36.4082 17.4572C36.4281 17.2575 36.3967 17.056 36.3169 16.8719C36.2371 16.6878 36.1116 16.5271 35.9523 16.405C35.793 16.2829 35.6052 16.2036 35.4066 16.1744C34.609 16.0575 33.8038 15.9992 32.9976 16ZM32.9976 34.2679C32.5288 34.2679 32.0791 34.0816 31.7476 33.7501C31.416 33.4185 31.2298 32.9689 31.2298 32.5C31.2298 32.0311 31.416 31.5815 31.7476 31.2499C32.0791 30.9184 32.5288 30.7321 32.9976 30.7321C33.4665 30.7321 33.9161 30.9184 34.2477 31.2499C34.5792 31.5815 34.7655 32.0311 34.7655 32.5C34.7655 32.9689 34.5792 33.4185 34.2477 33.7501C33.9161 34.0816 33.4665 34.2679 32.9976 34.2679ZM28.2833 38.9821C28.2833 39.451 28.0971 39.9007 27.7655 40.2322C27.434 40.5637 26.9843 40.75 26.5155 40.75C26.0466 40.75 25.597 40.5637 25.2654 40.2322C24.9339 39.9007 24.7476 39.451 24.7476 38.9821C24.7476 38.5133 24.9339 38.0636 25.2654 37.7321C25.597 37.4005 26.0466 37.2143 26.5155 37.2143C26.9843 37.2143 27.434 37.4005 27.7655 37.7321C28.0971 38.0636 28.2833 38.5133 28.2833 38.9821ZM25.3369 30.1429C25.1048 30.1429 24.8749 30.0971 24.6604 30.0083C24.4459 29.9194 24.251 29.7892 24.0868 29.6251C23.9227 29.4609 23.7925 29.266 23.7036 29.0515C23.6148 28.837 23.5691 28.6072 23.5691 28.375C23.5691 28.1428 23.6148 27.913 23.7036 27.6985C23.7925 27.484 23.9227 27.2891 24.0868 27.1249C24.251 26.9608 24.4459 26.8306 24.6604 26.7417C24.8749 26.6529 25.1048 26.6071 25.3369 26.6071C25.8058 26.6071 26.2554 26.7934 26.587 27.1249C26.9185 27.4565 27.1048 27.9061 27.1048 28.375C27.1048 28.8439 26.9185 29.2935 26.587 29.6251C26.2554 29.9566 25.8058 30.1429 25.3369 30.1429ZM38.8905 40.1607C38.8905 40.6296 38.7042 41.0792 38.3727 41.4108C38.0411 41.7423 37.5915 41.9286 37.1226 41.9286C36.6538 41.9286 36.2041 41.7423 35.8726 41.4108C35.541 41.0792 35.3548 40.6296 35.3548 40.1607C35.3548 39.6918 35.541 39.2422 35.8726 38.9106C36.2041 38.5791 36.6538 38.3928 37.1226 38.3928C37.5915 38.3928 38.0411 38.5791 38.3727 38.9106C38.7042 39.2422 38.8905 39.6918 38.8905 40.1607Z" fill="white"/>
</svg>
