<svg width="66" height="65" viewBox="0 0 66 65" fill="none" xmlns="http://www.w3.org/2000/svg">
<rect x="0.5" width="65" height="65" rx="32.5" fill="#A87033"/>
<path d="M22.2317 18.8248C22.9963 18.2734 23.9189 17.9843 24.8615 18.0007C25.9598 18.0007 26.8906 18.307 27.6082 18.9314C28.3071 19.5372 28.6811 20.336 28.8892 21.0975C29.1702 22.1281 29.1955 23.3313 29.1888 24.3162C29.5521 24.4539 29.8821 24.6547 30.1788 24.9187C30.744 25.4213 31.0994 26.0779 31.3566 26.6989L32.7189 29.6858C34.3385 29.6147 35.9174 30.4896 36.9615 31.5236C38.0175 32.5678 38.9145 34.1585 38.8231 35.8051L41.7982 37.142C42.4209 37.3992 43.0792 37.7546 43.5818 38.3215C43.8458 38.6171 44.0467 38.9471 44.1843 39.3115C45.1692 39.303 46.3725 39.3301 47.4031 39.611C48.1646 39.8191 48.9634 40.1931 49.5692 40.892C50.1937 41.6096 50.5 42.5403 50.5 43.6386C50.5 44.654 50.2072 45.539 49.6758 46.2667C49.1529 46.9808 48.4489 47.4818 47.7094 47.8321C46.5518 48.3787 45.1929 48.6156 43.944 48.6884C43.7883 49.037 43.5835 49.3653 43.3145 49.658C42.3769 50.6886 40.9638 51 39.3308 51H39.2715C36.5638 50.8714 33.8545 49.7579 31.7306 48.1062C31.5405 48.2071 31.3424 48.292 31.1383 48.3601C30.216 48.668 29.2429 48.6173 28.3342 48.3871C26.5403 47.9302 24.7075 46.6932 23.2522 45.2429C21.7968 43.7926 20.5529 41.9633 20.0994 40.1661C19.8692 39.2539 19.8269 38.2775 20.1434 37.3518C20.2111 37.151 20.2957 36.9581 20.3972 36.7731C18.7455 34.6493 17.6286 31.9348 17.5017 29.2289L17.5 29.1697C17.5 27.5366 17.8114 26.1236 18.842 25.1861C19.1287 24.9247 19.4563 24.712 19.8117 24.5565C19.8845 23.3076 20.1214 21.9487 20.668 20.7912C21.0183 20.0517 21.5192 19.3477 22.2317 18.8248ZM21.2925 26.7362C20.9117 26.8174 20.69 26.9342 20.5512 27.0611C20.3312 27.2642 20.0435 27.7499 20.0385 29.1392C20.14 31.1784 20.976 33.2988 22.2435 35.008L30.3158 30.5336L29.0382 27.7312L29.0178 27.6872C28.8198 27.2032 28.6438 26.9494 28.4932 26.8157C28.3815 26.7159 28.2292 26.6313 27.9077 26.6313H22.5769C22.1464 26.6253 21.7163 26.6604 21.2925 26.7362ZM33.4923 46.2582C35.2015 47.5275 37.3203 48.3584 39.3612 48.4616C40.7489 48.4582 41.2363 48.1705 41.4394 47.9488C41.5663 47.8101 41.6831 47.5884 41.7643 47.2076L41.7711 47.1738C41.8424 46.7608 41.8753 46.3422 41.8692 45.9232V40.5925C41.8692 40.2693 41.7846 40.1187 41.6865 40.0087C41.5511 39.8564 41.2972 39.6804 40.8132 39.4824L40.7743 39.4655L37.96 38.198L33.4923 46.2582Z" fill="white"/>
</svg>
