<svg width="41" height="41" viewBox="0 0 41 41" fill="none" xmlns="http://www.w3.org/2000/svg">
<rect width="41" height="41" rx="20.5" fill="#A87033"/>
<path d="M15.5999 8.83337H25.3999C29.1333 8.83337 32.1666 11.8667 32.1666 15.6V25.4C32.1666 27.1947 31.4537 28.9158 30.1847 30.1848C28.9157 31.4538 27.1946 32.1667 25.3999 32.1667H15.5999C11.8666 32.1667 8.83325 29.1334 8.83325 25.4V15.6C8.83325 13.8054 9.54617 12.0843 10.8152 10.8153C12.0842 9.54629 13.8053 8.83337 15.5999 8.83337ZM15.3666 11.1667C14.2527 11.1667 13.1844 11.6092 12.3967 12.3969C11.6091 13.1845 11.1666 14.2528 11.1666 15.3667V25.6334C11.1666 27.955 13.0449 29.8334 15.3666 29.8334H25.6333C26.7472 29.8334 27.8155 29.3909 28.6031 28.6032C29.3908 27.8156 29.8333 26.7473 29.8333 25.6334V15.3667C29.8333 13.045 27.9549 11.1667 25.6333 11.1667H15.3666ZM26.6249 12.9167C27.0117 12.9167 27.3826 13.0704 27.6561 13.3438C27.9296 13.6173 28.0833 13.9883 28.0833 14.375C28.0833 14.7618 27.9296 15.1327 27.6561 15.4062C27.3826 15.6797 27.0117 15.8334 26.6249 15.8334C26.2381 15.8334 25.8672 15.6797 25.5937 15.4062C25.3202 15.1327 25.1666 14.7618 25.1666 14.375C25.1666 13.9883 25.3202 13.6173 25.5937 13.3438C25.8672 13.0704 26.2381 12.9167 26.6249 12.9167ZM20.4999 14.6667C22.047 14.6667 23.5307 15.2813 24.6247 16.3753C25.7187 17.4692 26.3333 18.9529 26.3333 20.5C26.3333 22.0471 25.7187 23.5309 24.6247 24.6248C23.5307 25.7188 22.047 26.3334 20.4999 26.3334C18.9528 26.3334 17.4691 25.7188 16.3751 24.6248C15.2812 23.5309 14.6666 22.0471 14.6666 20.5C14.6666 18.9529 15.2812 17.4692 16.3751 16.3753C17.4691 15.2813 18.9528 14.6667 20.4999 14.6667ZM20.4999 17C19.5717 17 18.6814 17.3688 18.025 18.0252C17.3687 18.6815 16.9999 19.5718 16.9999 20.5C16.9999 21.4283 17.3687 22.3185 18.025 22.9749C18.6814 23.6313 19.5717 24 20.4999 24C21.4282 24 22.3184 23.6313 22.9748 22.9749C23.6312 22.3185 23.9999 21.4283 23.9999 20.5C23.9999 19.5718 23.6312 18.6815 22.9748 18.0252C22.3184 17.3688 21.4282 17 20.4999 17Z" fill="white"/>
</svg>
