<svg width="96" height="96" viewBox="0 0 96 96" fill="none" xmlns="http://www.w3.org/2000/svg">
<path d="M18.4841 18.06C19.2121 15.148 19.5761 13.696 20.6601 12.848C21.7481 12 23.2481 12 26.2481 12H69.7521C72.7521 12 74.2521 12 75.3401 12.848C76.4201 13.696 76.7882 15.148 77.5162 18.06L82.3282 37.316C82.7162 38.868 82.9121 39.64 82.8681 40.272C82.8134 41.069 82.5213 41.8314 82.0294 42.4609C81.5375 43.0904 80.8683 43.5582 80.1082 43.804C79.5082 44 78.6921 44 77.0561 44C74.9241 44 73.8561 44 72.9641 43.792C71.7274 43.5039 70.5771 42.9256 69.6082 42.1049C68.6393 41.2841 67.8797 40.2445 67.3921 39.072C67.0361 38.224 66.8642 37.192 66.5242 35.14C66.4282 34.564 66.3801 34.276 66.3241 34.2C66.2871 34.1488 66.2384 34.1071 66.182 34.0783C66.1257 34.0496 66.0634 34.0346 66.0001 34.0346C65.9369 34.0346 65.8746 34.0496 65.8183 34.0783C65.7619 34.1071 65.7132 34.1488 65.6762 34.2C65.6202 34.276 65.5721 34.56 65.4761 35.14L65.1521 37.096L65.0802 37.496C64.7384 39.2942 63.7903 40.9208 62.3941 42.1045C60.9979 43.2881 59.238 43.9571 57.4081 44H56.5921C54.6915 43.957 52.8683 43.2386 51.4493 41.9735C50.0302 40.7084 49.1081 38.9792 48.8481 37.096L48.5241 35.136C48.4281 34.564 48.3801 34.276 48.3242 34.2C48.2871 34.1488 48.2384 34.1071 48.182 34.0783C48.1257 34.0496 48.0634 34.0346 48.0001 34.0346C47.9369 34.0346 47.8746 34.0496 47.8183 34.0783C47.7619 34.1071 47.7132 34.1488 47.6761 34.2C47.6201 34.276 47.5722 34.56 47.4762 35.14L47.1521 37.096L47.0802 37.496C46.7384 39.2942 45.7903 40.9208 44.3941 42.1045C42.9979 43.2881 41.238 43.9571 39.4081 44H38.5921C36.7623 43.9571 35.0024 43.2881 33.6062 42.1045C32.21 40.9208 31.2619 39.2942 30.9201 37.496L30.8481 37.096L30.5241 35.136C30.4281 34.564 30.3801 34.276 30.3241 34.2C30.2871 34.1488 30.2384 34.1071 30.182 34.0783C30.1257 34.0496 30.0634 34.0346 30.0001 34.0346C29.9369 34.0346 29.8746 34.0496 29.8183 34.0783C29.7619 34.1071 29.7132 34.1488 29.6761 34.2C29.6201 34.276 29.5721 34.56 29.4761 35.14C29.1361 37.196 28.9641 38.22 28.6081 39.072C28.121 40.244 27.362 41.2833 26.3938 42.1041C25.4257 42.9248 24.2761 43.5034 23.0401 43.792C22.1441 44 21.0801 44 18.9441 44C17.3081 44 16.4921 44 15.8921 43.804C15.132 43.5582 14.4628 43.0904 13.9709 42.4609C13.479 41.8314 13.1869 41.069 13.1321 40.272C13.0921 39.64 13.2841 38.868 13.6721 37.316L18.4841 18.06Z" fill="#A87033"/>
<path fill-rule="evenodd" clip-rule="evenodd" d="M20.068 50C20 51.684 20 53.66 20 56V80C20 83.772 20 85.656 21.172 86.828C22.344 88 24.228 88 28 88H40V72C40 70.9391 40.4214 69.9217 41.1716 69.1716C41.9217 68.4214 42.9391 68 44 68H52C53.0609 68 54.0783 68.4214 54.8284 69.1716C55.5786 69.9217 56 70.9391 56 72V88H68C71.772 88 73.656 88 74.828 86.828C76 85.656 76 83.772 76 80V56C76 53.66 76 51.684 75.932 50C74.472 50 72.98 49.956 71.6 49.636C69.5522 49.1587 67.6381 48.2263 66 46.908C63.664 48.788 60.72 49.924 57.548 49.996L57.044 50H56.452C53.3707 49.9265 50.3997 48.8382 48 46.904C45.664 48.784 42.72 49.92 39.548 49.992L39.044 49.996H38.452C35.3711 49.9236 32.4002 48.8368 30 46.904C28.384 48.204 26.48 49.144 24.4 49.632C23.02 49.952 21.528 49.992 20.068 49.996" fill="#A87033"/>
</svg>
