<svg width="14" height="15" viewBox="0 0 14 15" fill="none" xmlns="http://www.w3.org/2000/svg">
<path d="M7.00008 7.20817C6.61331 7.20817 6.24237 7.05452 5.96888 6.78103C5.69539 6.50754 5.54175 6.13661 5.54175 5.74984C5.54175 5.36306 5.69539 4.99213 5.96888 4.71864C6.24237 4.44515 6.61331 4.2915 7.00008 4.2915C7.38686 4.2915 7.75779 4.44515 8.03128 4.71864C8.30477 4.99213 8.45842 5.36306 8.45842 5.74984C8.45842 5.94135 8.42069 6.13098 8.34741 6.30792C8.27412 6.48485 8.1667 6.64562 8.03128 6.78103C7.89586 6.91645 7.7351 7.02387 7.55816 7.09716C7.38123 7.17045 7.19159 7.20817 7.00008 7.20817ZM7.00008 1.6665C5.91711 1.6665 4.8785 2.09671 4.11273 2.86248C3.34696 3.62826 2.91675 4.66687 2.91675 5.74984C2.91675 8.81234 7.00008 13.3332 7.00008 13.3332C7.00008 13.3332 11.0834 8.81234 11.0834 5.74984C11.0834 4.66687 10.6532 3.62826 9.88743 2.86248C9.12166 2.09671 8.08305 1.6665 7.00008 1.6665Z" fill="#A87033"/>
</svg>
