<svg width="29" height="29" viewBox="0 0 29 29" fill="none" xmlns="http://www.w3.org/2000/svg">
<path d="M25.8281 14.5C25.8281 14.8605 25.6849 15.2063 25.43 15.4612C25.175 15.7162 24.8293 15.8594 24.4688 15.8594H4.53125C4.17072 15.8594 3.82496 15.7162 3.57003 15.4612C3.31509 15.2063 3.17188 14.8605 3.17188 14.5C3.17188 14.1395 3.31509 13.7937 3.57003 13.5388C3.82496 13.2838 4.17072 13.1406 4.53125 13.1406H24.4688C24.8293 13.1406 25.175 13.2838 25.43 13.5388C25.6849 13.7937 25.8281 14.1395 25.8281 14.5ZM4.53125 8.60938H24.4688C24.8293 8.60938 25.175 8.46616 25.43 8.21122C25.6849 7.95629 25.8281 7.61053 25.8281 7.25C25.8281 6.88947 25.6849 6.54371 25.43 6.28878C25.175 6.03384 24.8293 5.89062 24.4688 5.89062H4.53125C4.17072 5.89062 3.82496 6.03384 3.57003 6.28878C3.31509 6.54371 3.17188 6.88947 3.17188 7.25C3.17188 7.61053 3.31509 7.95629 3.57003 8.21122C3.82496 8.46616 4.17072 8.60938 4.53125 8.60938ZM24.4688 20.3906H4.53125C4.17072 20.3906 3.82496 20.5338 3.57003 20.7888C3.31509 21.0437 3.17188 21.3895 3.17188 21.75C3.17188 22.1105 3.31509 22.4563 3.57003 22.7112C3.82496 22.9662 4.17072 23.1094 4.53125 23.1094H24.4688C24.8293 23.1094 25.175 22.9662 25.43 22.7112C25.6849 22.4563 25.8281 22.1105 25.8281 21.75C25.8281 21.3895 25.6849 21.0437 25.43 20.7888C25.175 20.5338 24.8293 20.3906 24.4688 20.3906Z" fill="#A87033"/>
</svg>
