<svg width="11" height="11" viewBox="0 0 11 11" fill="none" xmlns="http://www.w3.org/2000/svg">
<path d="M2.58583 4.84458C3.36583 6.3775 4.6225 7.62875 6.15542 8.41417L7.34708 7.2225C7.49333 7.07625 7.71 7.0275 7.89958 7.0925C8.50625 7.29292 9.16167 7.40125 9.83333 7.40125C10.1313 7.40125 10.375 7.645 10.375 7.94292V9.83333C10.375 10.1313 10.1313 10.375 9.83333 10.375C4.74708 10.375 0.625 6.25292 0.625 1.16667C0.625 0.86875 0.86875 0.625 1.16667 0.625H3.0625C3.36042 0.625 3.60417 0.86875 3.60417 1.16667C3.60417 1.84375 3.7125 2.49375 3.91292 3.10042C3.9725 3.29 3.92917 3.50125 3.7775 3.65292L2.58583 4.84458Z" fill="#A87033"/>
</svg>
