<svg width="66" height="65" viewBox="0 0 66 65" fill="none" xmlns="http://www.w3.org/2000/svg">
<rect x="0.5" width="65" height="65" rx="32.5" fill="#A87033"/>
<path fill-rule="evenodd" clip-rule="evenodd" d="M34.8968 48.1589L34.8759 48.1619L34.7526 48.2148L34.7179 48.2209L34.6935 48.2148L34.5702 48.1604C34.5517 48.1564 34.5378 48.1594 34.5285 48.1695L34.5216 48.1846L34.4921 48.8321L34.5008 48.8623L34.5181 48.882L34.6988 48.9939L34.7248 49L34.7456 48.9939L34.9263 48.882L34.9471 48.8578L34.9541 48.8321L34.9245 48.1861C34.9199 48.17 34.9106 48.1609 34.8968 48.1589ZM35.3553 47.9879L35.331 47.991L35.0114 48.1316L34.994 48.1468L34.9888 48.1634L35.0201 48.8139L35.0288 48.8321L35.0426 48.8442L35.3918 48.9833C35.4138 48.9884 35.4305 48.9843 35.4421 48.9712L35.4491 48.9501L35.39 48.0212C35.3842 48.002 35.3726 47.991 35.3553 47.9879ZM34.1134 47.991C34.1058 47.9869 34.0966 47.9856 34.0879 47.9873C34.0792 47.989 34.0715 47.9935 34.0665 48L34.0561 48.0212L33.9971 48.9501C33.9982 48.9682 34.0081 48.9803 34.0266 48.9864L34.0526 48.9833L34.4018 48.8426L34.4191 48.8305L34.4243 48.8139L34.4556 48.1634L34.4504 48.1453L34.433 48.1301L34.1134 47.991Z" fill="white"/>
<path fill-rule="evenodd" clip-rule="evenodd" d="M32.9968 17.5129C33.4222 17.5129 33.8328 17.649 34.1507 17.8952C34.4686 18.1414 34.6717 18.4807 34.7215 18.8487L34.7336 19.0257V29.9026L46.7873 27.0404C47.2316 26.9353 47.7056 26.9881 48.1052 27.1872C48.5048 27.3863 48.7973 27.7155 48.9184 28.1024C49.8265 31.0019 49.668 34.0764 48.4653 36.8934C47.2626 39.7104 45.0763 42.1281 42.2138 43.8064C39.3513 45.4847 35.9567 46.3391 32.5077 46.2494C29.0586 46.1597 25.7286 45.1305 22.9862 43.3065C20.2437 41.4825 18.2268 38.9555 17.2192 36.081C16.2115 33.2065 16.2639 30.1293 17.3689 27.2821C18.4739 24.4349 20.576 21.9611 23.3793 20.2087C26.1826 18.4563 29.5462 17.5135 32.9968 17.5129ZM34.7336 34.1535C33.582 34.1535 32.4776 34.552 31.6633 35.2612C30.849 35.9705 30.3915 36.9324 30.3915 37.9355C30.3915 38.9385 30.849 39.9005 31.6633 40.6097C32.4776 41.319 33.582 41.7174 34.7336 41.7174C35.8852 41.7174 36.9897 41.319 37.804 40.6097C38.6183 39.9005 39.0757 38.9385 39.0757 37.9355C39.0757 36.9324 38.6183 35.9705 37.804 35.2612C36.9897 34.552 35.8852 34.1535 34.7336 34.1535ZM34.7336 37.1791C34.9639 37.1791 35.1848 37.2588 35.3477 37.4006C35.5106 37.5425 35.6021 37.7349 35.6021 37.9355C35.6021 38.1361 35.5106 38.3285 35.3477 38.4703C35.1848 38.6122 34.9639 38.6919 34.7336 38.6919C34.5033 38.6919 34.2824 38.6122 34.1196 38.4703C33.9567 38.3285 33.8652 38.1361 33.8652 37.9355C33.8652 37.7349 33.9567 37.5425 34.1196 37.4006C34.2824 37.2588 34.5033 37.1791 34.7336 37.1791ZM42.5494 32.6407C42.124 32.6408 41.7134 32.7768 41.3955 33.023C41.0776 33.2693 40.8745 33.6085 40.8247 33.9765L40.8126 34.1686C40.8131 34.5542 40.9826 34.9251 41.2865 35.2055C41.5904 35.4858 42.0057 35.6546 42.4476 35.6772C42.8896 35.6998 43.3247 35.5745 43.6642 35.327C44.0037 35.0796 44.2218 34.7285 44.2741 34.3456L44.2863 34.1535C44.2863 33.7523 44.1033 33.3675 43.7776 33.0838C43.4518 32.8001 43.0101 32.6407 42.5494 32.6407ZM26.0494 31.128C25.3585 31.128 24.6958 31.367 24.2072 31.7926C23.7186 32.2181 23.4442 32.7953 23.4442 33.3971C23.4442 33.999 23.7186 34.5761 24.2072 35.0017C24.6958 35.4272 25.3585 35.6663 26.0494 35.6663C26.7404 35.6663 27.403 35.4272 27.8916 35.0017C28.3802 34.5761 28.6547 33.999 28.6547 33.3971C28.6547 32.7953 28.3802 32.2181 27.8916 31.7926C27.403 31.367 26.7404 31.128 26.0494 31.128ZM39.5864 16.0667C43.2575 17.0534 46.4196 19.1229 48.5294 21.9196C48.7764 22.2473 48.8678 22.6457 48.7842 23.0309C48.7006 23.4161 48.4486 23.758 48.0813 23.9846L47.9058 24.0799L38.1656 28.6757C37.8976 28.8022 37.5961 28.865 37.2914 28.8578C36.9867 28.8507 36.6895 28.7738 36.4297 28.6349C36.1699 28.496 35.9566 28.3 35.8114 28.0666C35.6661 27.8332 35.5939 27.5706 35.6021 27.3051L35.6229 27.116L37.3597 17.283C37.3976 17.0683 37.4881 16.8632 37.6251 16.6817C37.7621 16.5002 37.9424 16.3466 38.1536 16.2312C38.3649 16.1158 38.6022 16.0414 38.8494 16.013C39.0966 15.9846 39.348 16.0029 39.5864 16.0667ZM26.9178 25.0768C26.4924 25.0769 26.0818 25.2129 25.7639 25.4591C25.446 25.7053 25.2429 26.0446 25.1932 26.4126L25.181 26.6047C25.1815 26.9903 25.351 27.3612 25.6549 27.6415C25.9588 27.9219 26.3741 28.0906 26.8161 28.1132C27.258 28.1358 27.6931 28.0106 28.0326 27.7631C28.3721 27.5156 28.5902 27.1646 28.6425 26.7817L28.6547 26.5896C28.6547 26.1884 28.4717 25.8036 28.146 25.5199C27.8203 25.2362 27.3785 25.0768 26.9178 25.0768ZM40.4617 19.6126L39.5881 24.564L44.4634 22.263C43.3398 21.1616 41.9806 20.2614 40.4617 19.6126Z" fill="white"/>
</svg>
