<svg width="40" height="39" viewBox="0 0 40 39" fill="none" xmlns="http://www.w3.org/2000/svg">
<ellipse cx="20" cy="19.5" rx="20" ry="19.5" fill="#A87033"/>
<path d="M18.3605 9.94118C17.1405 9.94184 15.9378 10.2325 14.8488 10.7897C13.7599 11.347 12.8151 12.1553 12.0905 13.1498C11.366 14.1442 10.8817 15.297 10.6768 16.5156C10.4718 17.7341 10.5518 18.9843 10.9104 20.1658C11.269 21.3473 11.8962 22.4271 12.7415 23.3184C13.5868 24.2096 14.6266 24.8876 15.7775 25.2976C16.9284 25.7077 18.1581 25.8385 19.3679 25.6794C20.5778 25.5204 21.7339 25.076 22.7434 24.382L27.563 29.2615C27.6969 29.407 27.8583 29.5238 28.0377 29.6048C28.217 29.6858 28.4107 29.7293 28.607 29.7328C28.8034 29.7363 28.9984 29.6997 29.1805 29.6252C29.3625 29.5507 29.5279 29.4398 29.6668 29.2991C29.8056 29.1584 29.9151 28.9908 29.9887 28.8063C30.0622 28.6218 30.0983 28.4242 30.0948 28.2253C30.0914 28.0263 30.0484 27.8301 29.9685 27.6484C29.8886 27.4667 29.7733 27.3031 29.6297 27.1674L24.8139 22.284C25.6107 21.0959 26.0727 19.7103 26.1503 18.276C26.228 16.8418 25.9184 15.4132 25.2547 14.144C24.5911 12.8747 23.5985 11.8127 22.3838 11.0722C21.1691 10.3317 19.7781 9.94066 18.3605 9.94118ZM13.4863 17.8431C13.4863 16.5333 13.9998 15.2771 14.9139 14.3509C15.828 13.4247 17.0678 12.9044 18.3605 12.9044C19.6532 12.9044 20.893 13.4247 21.8071 14.3509C22.7212 15.2771 23.2347 16.5333 23.2347 17.8431C23.2347 19.153 22.7212 20.4092 21.8071 21.3353C20.893 22.2615 19.6532 22.7819 18.3605 22.7819C17.0678 22.7819 15.828 22.2615 14.9139 21.3353C13.9998 20.4092 13.4863 19.153 13.4863 17.8431Z" fill="white"/>
</svg>
