<svg width="11" height="11" viewBox="0 0 11 11" fill="none" xmlns="http://www.w3.org/2000/svg">
<path d="M10.6071 5.50021C10.6071 6.85471 10.069 8.15373 9.11126 9.1115C8.15349 10.0693 6.85446 10.6074 5.49997 10.6074C4.14547 10.6074 2.84644 10.0693 1.88867 9.1115C0.930895 8.15373 0.392822 6.85471 0.392822 5.50021M10.6071 5.50021C10.6071 4.14571 10.069 2.84669 9.11126 1.88891C8.15349 0.931139 6.85446 0.393066 5.49997 0.393066C4.14547 0.393066 2.84644 0.931139 1.88867 1.88891C0.930895 2.84669 0.392822 4.14571 0.392822 5.50021M10.6071 5.50021H0.392822" stroke="#A87033" stroke-linecap="round" stroke-linejoin="round"/>
<path d="M7.46422 5.50021C7.36773 7.36784 6.67982 9.15641 5.49993 10.6074C4.32004 9.15641 3.63213 7.36784 3.53564 5.50021C3.63213 3.63257 4.32004 1.84401 5.49993 0.393066C6.67982 1.84401 7.36773 3.63257 7.46422 5.50021Z" stroke="#A87033" stroke-linecap="round" stroke-linejoin="round"/>
</svg>
