<svg width="16" height="16" viewBox="0 0 16 16" fill="none" xmlns="http://www.w3.org/2000/svg">
<path d="M6.29803 3.056C7.24828 1.352 7.72303 0.5 8.43328 0.5C9.14353 0.5 9.61828 1.352 10.5685 3.056L10.8145 3.497C11.0845 3.9815 11.2195 4.22375 11.4295 4.3835C11.6395 4.54325 11.902 4.6025 12.427 4.721L12.904 4.829C14.749 5.24675 15.6708 5.45525 15.8905 6.161C16.1095 6.866 15.481 7.60175 14.2233 9.0725L13.8978 9.45275C13.5408 9.8705 13.3615 10.0798 13.2813 10.3377C13.201 10.5965 13.228 10.8755 13.282 11.4327L13.3315 11.9405C13.5213 13.9032 13.6165 14.8843 13.042 15.32C12.4675 15.7557 11.6035 15.3582 9.87703 14.5632L9.42928 14.3577C8.93878 14.1312 8.69353 14.0187 8.43328 14.0187C8.17303 14.0187 7.92778 14.1312 7.43728 14.3577L6.99028 14.5632C5.26303 15.3582 4.39903 15.7557 3.82528 15.3207C3.25003 14.8842 3.34528 13.9032 3.53503 11.9405L3.58453 11.4335C3.63853 10.8755 3.66553 10.5965 3.58453 10.3385C3.50503 10.0798 3.32578 9.8705 2.96878 9.4535L2.64328 9.0725C1.38553 7.6025 0.757032 6.86675 0.976032 6.161C1.19503 5.45525 2.11828 5.246 3.96328 4.829L4.44028 4.721C4.96453 4.6025 5.22628 4.54325 5.43703 4.3835C5.64778 4.22375 5.78203 3.9815 6.05203 3.497L6.29803 3.056Z" fill="black"/>
</svg>
