<svg width="79" height="79" viewBox="0 0 79 79" fill="none" xmlns="http://www.w3.org/2000/svg">
<path d="M74.2812 78.875C65.1667 78.875 56.144 76.9062 47.2131 72.9688C38.2823 69.0312 30.1696 63.4167 22.875 56.125C15.5804 48.8333 9.96583 40.7396 6.03125 31.8438C2.09667 22.9479 0.127917 13.9062 0.125 4.71875V0.125H25.9375L29.9844 22.1094L17.5156 34.6875C19.1198 37.5312 20.9062 40.2292 22.875 42.7812C24.8438 45.3333 26.9583 47.7031 29.2187 49.8906C31.3333 52.0052 33.6492 54.0294 36.1662 55.9631C38.6833 57.8969 41.3988 59.7008 44.3125 61.375L57 48.6875L78.875 53.1719V78.875H74.2812Z" fill="#A87033"/>
</svg>
