<svg width="80" height="81" viewBox="0 0 80 81" fill="none" xmlns="http://www.w3.org/2000/svg">
<path d="M68.2002 12.14C64.5325 8.4364 60.1643 5.49984 55.3502 3.50142C50.5362 1.50301 45.3725 0.482703 40.1602 0.499971C18.3202 0.499971 0.520196 18.3 0.520196 40.14C0.520196 47.14 2.3602 53.94 5.8002 59.94L0.200195 80.5L21.2002 74.98C27.0002 78.14 33.5202 79.82 40.1602 79.82C62.0002 79.82 79.8002 62.02 79.8002 40.18C79.8002 29.58 75.6802 19.62 68.2002 12.14ZM40.1602 73.1C34.2402 73.1 28.4402 71.5 23.3602 68.5L22.1602 67.78L9.6802 71.06L13.0002 58.9L12.2002 57.66C8.91039 52.4082 7.1639 46.3371 7.1602 40.14C7.1602 21.98 21.9602 7.17997 40.1202 7.17997C48.9202 7.17997 57.2002 10.62 63.4002 16.86C66.4707 19.9154 68.9039 23.5501 70.5587 27.5533C72.2135 31.5564 73.057 35.8483 73.0402 40.18C73.1202 58.34 58.3202 73.1 40.1602 73.1ZM58.2402 48.46C57.2402 47.98 52.3602 45.58 51.4802 45.22C50.5602 44.9 49.9202 44.74 49.2402 45.7C48.5602 46.7 46.6802 48.94 46.1202 49.58C45.5602 50.26 44.9602 50.34 43.9602 49.82C42.9602 49.34 39.7602 48.26 36.0002 44.9C33.0402 42.26 31.0802 39.02 30.4802 38.02C29.9202 37.02 30.4002 36.5 30.9202 35.98C31.3602 35.54 31.9202 34.82 32.4002 34.26C32.8802 33.7 33.0802 33.26 33.4002 32.62C33.7202 31.94 33.5602 31.38 33.3202 30.9C33.0802 30.42 31.0802 25.54 30.2802 23.54C29.4802 21.62 28.6402 21.86 28.0402 21.82H26.1202C25.4402 21.82 24.4002 22.06 23.4802 23.06C22.6002 24.06 20.0402 26.46 20.0402 31.34C20.0402 36.22 23.6002 40.94 24.0802 41.58C24.5602 42.26 31.0802 52.26 41.0002 56.54C43.3602 57.58 45.2002 58.18 46.6402 58.62C49.0002 59.38 51.1602 59.26 52.8802 59.02C54.8002 58.74 58.7602 56.62 59.5602 54.3C60.4002 51.98 60.4002 50.02 60.1202 49.58C59.8402 49.14 59.2402 48.94 58.2402 48.46Z" fill="#A87033"/>
</svg>
