<svg width="41" height="41" viewBox="0 0 41 41" fill="none" xmlns="http://www.w3.org/2000/svg">
<rect width="41" height="41" rx="20.5" fill="#A87033"/>
<path d="M18.1666 24L24.2216 20.5L18.1666 17V24ZM31.6532 14.865C31.8049 15.4134 31.9099 16.1484 31.9799 17.0817C32.0616 18.015 32.0966 18.82 32.0966 19.52L32.1666 20.5C32.1666 23.055 31.9799 24.9334 31.6532 26.135C31.3616 27.185 30.6849 27.8617 29.6349 28.1534C29.0866 28.305 28.0833 28.41 26.5433 28.48C25.0266 28.5617 23.6383 28.5967 22.3549 28.5967L20.4999 28.6667C15.6116 28.6667 12.5666 28.48 11.3649 28.1534C10.3149 27.8617 9.63825 27.185 9.34659 26.135C9.19492 25.5867 9.08992 24.8517 9.01992 23.9184C8.93825 22.985 8.90325 22.18 8.90325 21.48L8.83325 20.5C8.83325 17.945 9.01992 16.0667 9.34659 14.865C9.63825 13.815 10.3149 13.1384 11.3649 12.8467C11.9133 12.695 12.9166 12.59 14.4566 12.52C15.9733 12.4384 17.3616 12.4034 18.6449 12.4034L20.4999 12.3334C25.3883 12.3334 28.4333 12.52 29.6349 12.8467C30.6849 13.1384 31.3616 13.815 31.6532 14.865Z" fill="white"/>
</svg>
